<?xml version="1.0" encoding="utf-8"?>
<!-- Generator: Adobe Illustrator 16.0.0, SVG Export Plug-In . SVG Version: 6.00 Build 0)  -->
<!DOCTYPE svg PUBLIC "-//W3C//DTD SVG 1.1//EN" "http://www.w3.org/Graphics/SVG/1.1/DTD/svg11.dtd">
<svg version="1.1" id="Layer_1" xmlns="http://www.w3.org/2000/svg" xmlns:xlink="http://www.w3.org/1999/xlink" x="0px" y="0px"
	 width="70px" height="70px" viewBox="0 0 70 70" enable-background="new 0 0 70 70" xml:space="preserve">
<path fill="#DA2626" d="M68.783,63.874L51.568,46.888c4.427-4.995,6.853-11.28,6.853-17.823c0-15.281-13.104-27.715-29.215-27.715
	C13.103,1.35,0,13.784,0,29.065c0,15.287,13.103,27.719,29.206,27.719c6.047,0,11.813-1.729,16.738-5.019l17.35,17.124
	c0.727,0.718,1.699,1.11,2.747,1.11c0.986,0,1.921-0.358,2.636-1.011C70.196,67.606,70.24,65.316,68.783,63.874L68.783,63.874z
	 M29.206,8.583c11.907,0,21.594,9.191,21.594,20.482c0,11.297-9.687,20.489-21.594,20.489c-11.9,0-21.585-9.191-21.585-20.489
	C7.621,17.774,17.306,8.583,29.206,8.583L29.206,8.583z M29.206,8.583"/>
</svg>
