<?xml version="1.0" encoding="utf-8"?>
<!-- Generator: Adobe Illustrator 16.0.0, SVG Export Plug-In . SVG Version: 6.00 Build 0)  -->
<!DOCTYPE svg PUBLIC "-//W3C//DTD SVG 1.1//EN" "http://www.w3.org/Graphics/SVG/1.1/DTD/svg11.dtd">
<svg version="1.1" id="Capa_1" xmlns="http://www.w3.org/2000/svg" xmlns:xlink="http://www.w3.org/1999/xlink" x="0px" y="0px"
	 width="512px" height="512px" viewBox="0 0 512 512" enable-background="new 0 0 512 512" xml:space="preserve">
<g>
	<g id="Layer_1_107_">
		<g>
			<path fill="#3F3F3F" d="M505.51,78.994c-5.08-5.825-12.394-9.176-20.107-9.176H117.853l-5.187-30.959
				c-2.128-12.82-13.219-22.235-26.225-22.235H26.597C11.889,16.624,0,28.512,0,43.221s11.889,26.598,26.597,26.598h37.316
				l49.471,296.934c0.213,1.196,0.825,2.181,1.197,3.298c0.426,1.409,0.771,2.739,1.437,4.017c0.851,1.755,1.995,3.244,3.191,4.76
				c0.825,1.038,1.569,2.075,2.527,2.979c1.542,1.437,3.325,2.446,5.133,3.458c1.011,0.559,1.888,1.303,2.979,1.729
				c3.085,1.25,6.33,1.994,9.761,1.994c0.026,0,292.598,0,292.598,0c14.708,0,26.598-11.889,26.598-26.597
				s-11.89-26.598-26.598-26.598H162.165l-4.416-26.597h301.057c13.245,0,24.469-9.735,26.331-22.821l26.598-186.182
				C512.824,92.532,510.537,84.792,505.51,78.994z M454.735,123.013l-7.58,53.195h-94.739v-53.195H454.735z M325.818,123.013v53.195
				h-79.792v-53.195H325.818z M325.818,202.805V256h-79.792v-53.195H325.818z M219.429,123.013v53.195h-79.792
				c-1.41,0-2.686,0.399-3.936,0.798l-8.99-53.993H219.429z M140.009,202.805h79.42V256h-70.563L140.009,202.805z M352.416,256
				v-53.195h90.909L435.745,256H352.416z"/>
			<circle fill="#3F3F3F" cx="179.532" cy="455.48" r="39.896"/>
			<circle fill="#3F3F3F" cx="418.909" cy="455.48" r="39.896"/>
		</g>
	</g>
</g>
</svg>
